<?xml version="1.0" standalone="no"?>
<!DOCTYPE svg PUBLIC "-//W3C//DTD SVG 20010904//EN"
 "http://www.w3.org/TR/2001/REC-SVG-20010904/DTD/svg10.dtd">
<svg version="1.0" xmlns="http://www.w3.org/2000/svg"
 width="3543.000000pt" height="1360.000000pt" viewBox="0 0 3543.000000 1360.000000"
 preserveAspectRatio="xMidYMid meet">

<g transform="translate(0.000000,1360.000000) scale(0.100000,-0.100000)"
fill="#000000" stroke="none">
<path d="M11340 11563 c-201 -21 -458 -84 -646 -158 -315 -124 -654 -348 -869
-576 -64 -68 -5052 -5691 -5084 -5732 -13 -16 91 -17 2006 -17 l2020 0 1825
2058 c1004 1131 1872 2102 1929 2157 368 354 854 586 1379 660 83 12 228 18
516 22 l400 6 2189 -2284 c1204 -1256 2192 -2285 2195 -2287 10 -4 1511 1691
1507 1701 -1 5 -965 1010 -2142 2233 l-2140 2224 -2525 -2 c-1389 0 -2541 -3
-2560 -5z"/>
<path d="M21640 11554 c-595 -81 -1124 -365 -1531 -822 -67 -75 -133 -149
-146 -163 l-24 -27 911 -948 c502 -522 950 -987 995 -1033 l83 -83 317 358
c175 198 355 394 399 438 383 371 850 598 1406 683 106 16 286 17 2280 21
1497 2 2200 0 2278 -8 131 -12 247 -46 350 -101 331 -176 518 -527 481 -897
-39 -380 -305 -686 -690 -794 -34 -9 -484 -13 -1904 -18 -2035 -7 -1921 -4
-2205 -66 -418 -92 -834 -312 -1145 -606 -72 -68 -2045 -2278 -2134 -2391 -13
-16 91 -17 2006 -17 l2020 0 335 378 c190 212 378 414 431 461 388 343 815
540 1337 617 104 16 286 18 1910 24 1784 6 1796 7 1907 28 570 109 1003 338
1388 733 383 393 618 880 690 1432 20 155 20 469 0 624 -69 521 -293 1009
-634 1375 -400 431 -862 684 -1446 791 l-120 22 -4720 1 c-4041 2 -4735 0
-4825 -12z"/>
<path d="M13400 7063 c-280 -30 -538 -148 -733 -335 -42 -40 -390 -426 -772
-858 l-695 -785 1450 -3 c797 -1 2103 -1 2902 0 l1451 3 -954 992 -954 993
-830 -2 c-456 -1 -846 -3 -865 -5z"/>
<path d="M10593 3916 c-123 -30 -242 -122 -301 -233 -16 -32 -130 -355 -252
-718 -217 -647 -221 -661 -218 -731 4 -82 28 -127 92 -171 37 -26 45 -28 220
-36 99 -4 532 -6 961 -5 l780 3 60 24 c111 44 193 113 253 211 11 20 123 337
248 705 199 589 227 678 227 735 2 96 -37 160 -123 206 -33 18 -78 19 -965 21
-720 1 -942 -1 -982 -11z m1445 -418 c-3 -7 -78 -233 -168 -502 -94 -284 -170
-496 -181 -507 -18 -18 -46 -19 -630 -19 -485 0 -610 3 -607 13 3 6 78 231
167 499 135 404 167 491 188 508 25 20 40 20 630 20 480 0 604 -3 601 -12z"/>
<path d="M3528 3738 c-85 -95 -446 -504 -802 -908 -357 -404 -661 -747 -674
-762 l-26 -28 330 0 329 0 130 154 130 155 408 0 c381 1 407 2 407 19 0 14
-50 283 -65 350 -5 22 -6 22 -210 22 -113 0 -205 2 -205 5 0 15 555 637 557
625 7 -37 234 -1231 244 -1277 l10 -53 300 0 c164 0 299 1 299 3 0 1 -92 421
-204 932 l-203 930 -301 3 -301 2 -153 -172z"/>
<path d="M5527 3903 c-2 -5 -124 -368 -271 -808 -163 -492 -266 -816 -266
-839 0 -95 66 -192 147 -216 27 -8 282 -10 888 -8 l850 3 68 33 c84 41 174
127 212 202 20 40 555 1618 555 1637 0 2 -127 2 -282 1 l-281 -3 -234 -700
c-149 -445 -241 -707 -254 -720 -19 -19 -35 -20 -535 -23 -416 -2 -515 0 -512
10 4 11 438 1319 468 1411 l9 27 -279 0 c-153 0 -281 -3 -283 -7z"/>
<path d="M7882 3700 l-70 -210 399 0 c219 0 399 -1 399 -3 0 -1 -108 -326
-240 -722 -132 -396 -240 -721 -240 -722 0 -2 130 -3 288 -3 l288 0 241 728
242 727 402 5 403 5 63 195 c34 107 63 198 63 203 0 4 -488 7 -1084 7 l-1084
0 -70 -210z"/>
<path d="M12991 3543 c-66 -203 -206 -623 -310 -935 l-189 -568 286 0 287 0
243 730 244 730 494 0 c272 0 494 -3 494 -7 0 -26 -137 -402 -153 -420 -20
-23 -22 -23 -375 -25 l-355 -3 -64 -190 c-35 -104 -66 -198 -69 -207 -5 -17
23 -18 495 -18 529 0 564 3 659 47 69 32 170 127 206 193 15 28 77 210 137
405 120 390 127 431 88 512 -25 51 -76 96 -128 112 -28 8 -297 11 -954 11
l-916 0 -120 -367z"/>
<path d="M15415 2994 c-445 -503 -816 -924 -824 -935 -13 -19 -8 -19 313 -19
l326 0 132 155 132 155 408 0 c224 0 408 1 408 3 0 1 -16 85 -35 186 -19 100
-35 187 -35 192 0 5 -94 10 -209 11 l-209 3 276 317 c152 174 278 315 280 313
2 -2 61 -302 131 -667 l126 -663 298 -3 c237 -2 297 0 297 11 0 7 -88 415
-195 907 -107 492 -198 907 -201 923 l-6 27 -301 0 -302 0 -810 -916z"/>
<path d="M17830 3183 c-133 -401 -272 -821 -310 -935 l-68 -208 286 0 287 0
243 730 244 730 495 0 c392 0 494 -3 491 -12 -3 -7 -33 -98 -68 -202 -41 -124
-71 -198 -86 -213 l-23 -23 -381 0 c-209 0 -380 -3 -380 -7 0 -5 115 -231 255
-503 l254 -495 315 -3 c174 -1 316 0 316 2 0 3 -72 134 -160 293 l-159 288 77
7 c137 11 231 57 324 155 64 69 76 96 163 369 136 428 147 470 142 547 -6 89
-39 140 -116 180 l-55 27 -922 0 -923 0 -241 -727z"/>
<path d="M20302 3700 l-70 -210 399 0 c219 0 399 -1 399 -3 0 -1 -108 -326
-240 -722 -132 -396 -240 -721 -240 -722 0 -2 129 -3 288 -3 l287 0 240 728
241 727 401 3 401 2 66 198 c36 108 66 200 66 205 0 4 -488 7 -1084 7 l-1084
0 -70 -210z"/>
<path d="M22493 2975 l-311 -935 286 2 285 3 195 603 c108 331 198 602 201
602 3 0 220 -272 481 -605 l475 -605 234 2 234 3 309 925 c169 509 308 928
308 932 0 5 -127 8 -282 8 l-283 0 -195 -601 c-107 -330 -197 -602 -201 -605
-4 -2 -221 268 -481 600 l-473 605 -235 0 -235 1 -312 -935z"/>
<path d="M25294 2988 c-169 -508 -309 -929 -312 -935 -3 -10 205 -13 1020 -13
l1023 0 68 203 c37 111 67 206 67 210 0 4 -331 7 -735 7 -404 0 -735 3 -734 8
0 4 26 81 57 172 l57 165 481 3 482 2 61 189 c34 104 61 192 61 195 0 3 -214
6 -475 6 -261 0 -475 3 -475 7 0 4 21 72 47 150 l47 143 728 0 c400 0 729 3
731 8 3 4 34 96 70 205 l65 197 -1013 0 -1013 0 -308 -922z"/>
<path d="M27663 2975 l-311 -935 286 0 287 0 245 730 244 730 493 0 c287 0
493 -4 493 -9 0 -27 -136 -400 -153 -418 l-20 -23 -384 0 c-211 0 -383 -2
-383 -5 0 -3 116 -230 257 -505 l257 -500 313 0 c172 0 313 3 313 8 -1 4 -72
135 -159 292 l-158 285 76 7 c132 11 232 57 316 144 78 83 101 140 259 662 63
205 70 275 37 348 -22 49 -78 97 -130 113 -28 8 -296 11 -952 11 l-914 0 -312
-935z"/>
</g>
</svg>
