<?xml version="1.0" encoding="UTF-8"?>
<svg width="2219px" height="486px" viewBox="0 0 2219 486" version="1.1" xmlns="http://www.w3.org/2000/svg" xmlns:xlink="http://www.w3.org/1999/xlink">
    <!-- Generator: Sketch 52.6 (67491) - http://www.bohemiancoding.com/sketch -->
    <title>logo</title>
    <desc>Created with Sketch.</desc>
    <g id="Page-1" stroke="none" stroke-width="1" fill="none" fill-rule="evenodd">
        <g id="logo">
            <rect id="Rectangle" fill="#FFFFFF" x="0" y="0" width="2218.14" height="485.36"></rect>
            <path d="M488.69,354.39 C525.03,354.39 555.02,324.44 555.02,287.58 C555.02,250.72 525.04,220.31 488.69,220.31 C452.35,220.31 422.82,250.72 422.82,287.58 C422.82,324.43 452.35,354.39 488.69,354.39 Z" id="Path" fill="#C6C6C6"></path>
            <path d="M171.58,354.85 C208.38,354.85 237.91,324.9 237.91,288.04 C237.91,250.72 208.38,220.77 171.58,220.77 C135.24,220.77 105.7,250.72 105.7,288.04 C105.71,324.9 135.24,354.85 171.58,354.85 Z" id="Path" fill="#C6C6C6"></path>
            <polygon id="Path" fill="#212A72" points="17.05 17.05 686.95 17.05 686.95 468.3 17.05 468.3"></polygon>
            <path d="M171.58,420.74 C244.27,420.74 302.88,361.3 302.88,288.04 C302.88,214.32 244.27,154.88 171.58,154.88 C99.35,154.88 40.74,214.32 40.74,288.04 C40.74,361.3 99.35,420.74 171.58,420.74 Z" id="Path" fill="#FFFFFF"></path>
            <polygon id="Path" fill="#FFFFFF" points="352.85 399.54 297.43 248.41 273.8 303.24 265.63 283.43 242.91 284.81 285.16 399.54"></polygon>
            <path d="M172.03,220.88 C208.37,220.88 238.02,250.94 238.02,287.81 C238.02,324.67 208.37,354.74 172.03,354.74 C135.68,354.74 106.04,324.67 106.04,287.81 C106.04,250.94 135.68,220.88 172.03,220.88 Z" id="Path" stroke="#E40521" stroke-width="0.216" fill="#E40521"></path>
            <path d="M488.69,420.28 C560.93,420.28 619.99,360.84 619.99,287.58 C619.99,214.32 560.93,154.42 488.69,154.42 C416.46,154.42 357.85,214.32 357.85,287.58 C357.85,360.84 416.46,420.28 488.69,420.28 Z" id="Path" fill="#FFFFFF"></path>
            <polygon id="Path" fill="#FFFFFF" points="669.82 398.39 548.07 57.63 480.37 57.63 602.58 398.39"></polygon>
            <path d="M490.05,220.88 C526.39,220.88 556.03,250.94 556.03,287.81 C556.03,324.67 526.39,354.74 490.05,354.74 C453.7,354.74 424.06,324.67 424.06,287.81 C424.06,250.94 453.7,220.88 490.05,220.88 Z" id="Path" stroke="#E40521" stroke-width="0.216" fill="#E40521"></path>
            <polygon id="Path" fill="#FFFFFF" points="473.25 124.46 449.62 58.58 270.17 58.58 293.79 124.46"></polygon>
            <rect id="Rectangle" fill="#E40521" x="704" y="17.05" width="1497.09" height="451.25"></rect>
            <path d="M963.55,233.6 L1053.19,233.6 C1053.19,242.82 1052.8,251.19 1052.04,258.72 C1051.27,266.25 1049.74,273.24 1047.43,279.69 C1044.2,288.76 1039.83,296.78 1034.29,303.77 C1028.76,310.76 1022.27,316.6 1014.82,321.28 C1007.37,325.97 999.19,329.54 990.28,332 C981.37,334.46 972,335.69 962.17,335.69 C948.65,335.69 936.32,333.46 925.18,329.01 C914.04,324.56 904.48,318.29 896.49,310.23 C888.5,302.16 882.28,292.49 877.82,281.19 C873.36,269.9 871.14,257.42 871.14,243.74 C871.14,230.22 873.33,217.82 877.71,206.52 C882.09,195.23 888.31,185.59 896.38,177.6 C904.45,169.61 914.16,163.39 925.53,158.93 C936.9,154.48 949.57,152.25 963.55,152.25 C981.67,152.25 997.58,156.17 1011.25,164 C1024.92,171.83 1035.75,183.97 1043.74,200.41 L1000.88,218.15 C996.88,208.63 991.7,201.79 985.33,197.64 C978.95,193.49 971.69,191.42 963.55,191.42 C956.79,191.42 950.64,192.69 945.11,195.22 C939.58,197.75 934.86,201.37 930.94,206.05 C927.02,210.74 923.95,216.38 921.72,222.99 C919.49,229.6 918.38,236.97 918.38,245.11 C918.38,252.48 919.34,259.32 921.26,265.62 C923.18,271.92 926.06,277.37 929.9,281.98 C933.74,286.59 938.5,290.16 944.19,292.7 C949.87,295.24 956.48,296.5 964.01,296.5 C968.46,296.5 972.77,296 976.91,295 C981.06,294 984.78,292.39 988.09,290.16 C991.39,287.93 994.12,285.05 996.27,281.52 C998.42,277.99 999.88,273.69 1000.65,268.62 L963.55,268.62 L963.55,233.6 Z" id="Path" fill="#FFFFFF"></path>
            <path d="M1073.93,243.97 C1073.93,231.07 1076.31,219.05 1081.07,207.91 C1085.83,196.77 1092.44,187.05 1100.89,178.76 C1109.34,170.46 1119.44,163.98 1131.19,159.29 C1142.94,154.61 1155.88,152.26 1170.02,152.26 C1184,152.26 1196.9,154.6 1208.73,159.29 C1220.56,163.98 1230.74,170.47 1239.26,178.76 C1247.78,187.05 1254.43,196.77 1259.19,207.91 C1263.95,219.05 1266.33,231.07 1266.33,243.97 C1266.33,256.87 1263.95,268.9 1259.19,280.03 C1254.43,291.17 1247.78,300.88 1239.26,309.18 C1230.74,317.48 1220.55,323.97 1208.73,328.65 C1196.9,333.33 1183.99,335.68 1170.02,335.68 C1155.88,335.68 1142.94,333.34 1131.19,328.65 C1119.44,323.97 1109.33,317.47 1100.89,309.18 C1092.44,300.88 1085.83,291.17 1081.07,280.03 C1076.31,268.9 1073.93,256.88 1073.93,243.97 Z M1121.17,243.97 C1121.17,250.88 1122.47,257.26 1125.09,263.1 C1127.7,268.94 1131.23,274.01 1135.69,278.31 C1140.14,282.61 1145.33,285.95 1151.24,288.33 C1157.15,290.71 1163.41,291.9 1170.02,291.9 C1176.62,291.9 1182.89,290.71 1188.8,288.33 C1194.71,285.95 1199.94,282.61 1204.47,278.31 C1209,274.01 1212.57,268.94 1215.19,263.1 C1217.8,257.26 1219.11,250.89 1219.11,243.97 C1219.11,237.06 1217.8,230.68 1215.19,224.84 C1212.58,219 1209,213.93 1204.47,209.63 C1199.94,205.33 1194.71,201.99 1188.8,199.61 C1182.88,197.23 1176.62,196.04 1170.02,196.04 C1163.41,196.04 1157.15,197.23 1151.24,199.61 C1145.32,201.99 1140.14,205.33 1135.69,209.63 C1131.23,213.93 1127.7,219 1125.09,224.84 C1122.47,230.69 1121.17,237.06 1121.17,243.97 Z" id="Shape" fill="#FFFFFF" fill-rule="nonzero"></path>
            <path d="M1439.41,330.85 L1383.18,330.85 L1340.09,264.02 L1340.09,330.85 L1294.92,330.85 L1294.92,157.1 L1365.2,157.1 C1374.88,157.1 1383.33,158.52 1390.55,161.36 C1397.77,164.2 1403.72,168.08 1408.41,173 C1413.09,177.92 1416.63,183.6 1419.01,190.05 C1421.39,196.5 1422.58,203.42 1422.58,210.79 C1422.58,224 1419.39,234.72 1413.02,242.94 C1406.64,251.16 1397.23,256.73 1384.79,259.65 L1439.41,330.85 Z M1340.09,234.76 L1348.62,234.76 C1357.53,234.76 1364.37,232.92 1369.13,229.23 C1373.89,225.54 1376.27,220.24 1376.27,213.33 C1376.27,206.42 1373.89,201.12 1369.13,197.43 C1364.37,193.74 1357.53,191.9 1348.62,191.9 L1340.09,191.9 L1340.09,234.76 Z" id="Shape" fill="#FFFFFF" fill-rule="nonzero"></path>
            <path d="M1458.3,157.1 L1525.13,157.1 C1536.96,157.1 1548.06,159.48 1558.43,164.24 C1568.8,169 1577.86,175.34 1585.62,183.25 C1593.37,191.16 1599.48,200.38 1603.94,210.9 C1608.39,221.42 1610.62,232.45 1610.62,243.97 C1610.62,255.34 1608.43,266.29 1604.05,276.81 C1599.67,287.33 1593.6,296.59 1585.85,304.58 C1578.09,312.57 1569.03,318.95 1558.66,323.71 C1548.29,328.47 1537.11,330.85 1525.13,330.85 L1458.3,330.85 L1458.3,157.1 Z M1503.47,292.6 L1513.84,292.6 C1521.67,292.6 1528.66,291.37 1534.81,288.91 C1540.95,286.45 1546.14,283.07 1550.36,278.77 C1554.58,274.47 1557.81,269.36 1560.04,263.45 C1562.26,257.54 1563.38,251.05 1563.38,243.98 C1563.38,237.07 1562.23,230.61 1559.92,224.62 C1557.62,218.63 1554.35,213.48 1550.13,209.18 C1545.9,204.88 1540.72,201.5 1534.58,199.04 C1528.43,196.58 1521.52,195.35 1513.84,195.35 L1503.47,195.35 L1503.47,292.6 Z" id="Shape" fill="#FFFFFF" fill-rule="nonzero"></path>
            <path d="M1631.59,243.97 C1631.59,231.07 1633.97,219.05 1638.73,207.91 C1643.49,196.77 1650.1,187.05 1658.55,178.76 C1667,170.46 1677.1,163.98 1688.85,159.29 C1700.6,154.61 1713.54,152.26 1727.68,152.26 C1741.66,152.26 1754.56,154.6 1766.39,159.29 C1778.22,163.98 1788.4,170.47 1796.92,178.76 C1805.44,187.05 1812.09,196.77 1816.85,207.91 C1821.61,219.05 1823.99,231.07 1823.99,243.97 C1823.99,256.87 1821.61,268.9 1816.85,280.03 C1812.09,291.17 1805.44,300.88 1796.92,309.18 C1788.4,317.48 1778.21,323.97 1766.39,328.65 C1754.56,333.33 1741.65,335.68 1727.68,335.68 C1713.54,335.68 1700.6,333.34 1688.85,328.65 C1677.1,323.97 1666.99,317.47 1658.55,309.18 C1650.1,300.88 1643.49,291.17 1638.73,280.03 C1633.97,268.9 1631.59,256.88 1631.59,243.97 Z M1678.83,243.97 C1678.83,250.88 1680.13,257.26 1682.75,263.1 C1685.36,268.94 1688.89,274.01 1693.35,278.31 C1697.8,282.61 1702.99,285.95 1708.9,288.33 C1714.81,290.71 1721.07,291.9 1727.68,291.9 C1734.28,291.9 1740.55,290.71 1746.46,288.33 C1752.37,285.95 1757.6,282.61 1762.13,278.31 C1766.66,274.01 1770.23,268.94 1772.85,263.1 C1775.46,257.26 1776.77,250.89 1776.77,243.97 C1776.77,237.06 1775.46,230.68 1772.85,224.84 C1770.24,219 1766.66,213.93 1762.13,209.63 C1757.6,205.33 1752.37,201.99 1746.46,199.61 C1740.54,197.23 1734.28,196.04 1727.68,196.04 C1721.07,196.04 1714.81,197.23 1708.9,199.61 C1702.98,201.99 1697.8,205.33 1693.35,209.63 C1688.89,213.93 1685.36,219 1682.75,224.84 C1680.14,230.69 1678.83,237.06 1678.83,243.97 Z" id="Shape" fill="#FFFFFF" fill-rule="nonzero"></path>
            <polygon id="Path" fill="#FFFFFF" points="1852.59 330.85 1852.59 157.1 1897.76 157.1 1981.18 263.33 1981.18 157.1 2026.12 157.1 2026.12 330.85 1981.18 330.85 1897.76 224.62 1897.76 330.85"></polygon>
        </g>
    </g>
</svg>