<?xml version="1.0" standalone="no"?>
<!DOCTYPE svg PUBLIC "-//W3C//DTD SVG 20010904//EN"
 "http://www.w3.org/TR/2001/REC-SVG-20010904/DTD/svg10.dtd">
<svg version="1.0" xmlns="http://www.w3.org/2000/svg"
 width="124.000000pt" height="64.000000pt" viewBox="0 0 124.000000 64.000000"
 preserveAspectRatio="xMidYMid meet">

<g transform="translate(0.000000,64.000000) scale(0.100000,-0.100000)"
fill="#000000" stroke="none">
<path d="M0 325 l0 -295 45 0 45 0 0 100 c0 94 2 103 25 125 27 28 37 30 68
14 34 -18 37 -27 37 -136 l0 -103 46 0 46 0 -4 125 -3 125 -36 36 c-39 39 -91
56 -145 47 l-34 -6 0 132 0 131 -45 0 -45 0 0 -295z"/>
<path d="M1040 575 l0 -45 -445 0 -445 0 0 -40 0 -40 445 0 445 0 0 -210 0
-210 45 0 45 0 0 210 0 210 55 0 55 0 0 40 0 40 -55 0 -55 0 0 45 0 45 -45 0
-45 0 0 -45z"/>
<path d="M460 349 c-118 -47 -135 -215 -30 -285 46 -31 99 -40 142 -25 22 8
34 8 36 1 2 -5 24 -10 48 -10 l44 0 0 165 0 165 -45 0 c-25 0 -45 -4 -45 -10
0 -6 -9 -6 -26 0 -32 13 -91 12 -124 -1z m125 -104 c14 -13 25 -36 25 -50 0
-33 -41 -75 -73 -75 -69 0 -104 88 -51 129 35 28 69 26 99 -4z"/>
<path d="M760 195 l0 -165 45 0 45 0 0 99 c0 79 3 103 17 116 20 21 57 35 89
35 21 0 24 4 24 40 l0 40 -41 0 c-22 0 -50 -5 -62 -11 -16 -9 -22 -9 -25 0 -2
6 -24 11 -48 11 l-44 0 0 -165z"/>
</g>
</svg>
