<?xml version="1.0" standalone="no"?>
<!DOCTYPE svg PUBLIC "-//W3C//DTD SVG 20010904//EN"
 "http://www.w3.org/TR/2001/REC-SVG-20010904/DTD/svg10.dtd">
<svg version="1.0" xmlns="http://www.w3.org/2000/svg"
 width="380.000000pt" height="132.000000pt" viewBox="0 0 380.000000 132.000000"
 preserveAspectRatio="xMidYMid meet">

<g transform="translate(0.000000,132.000000) scale(0.100000,-0.100000)"
fill="#000000" stroke="none">
<path d="M0 660 l0 -660 1855 0 1855 0 0 660 0 660 -1855 0 -1855 0 0 -660z
m844 481 c32 -11 61 -23 64 -26 8 -7 -45 -115 -57 -115 -5 0 -26 6 -47 14 -22
7 -60 16 -86 20 l-48 7 0 66 0 66 58 -6 c31 -2 84 -14 116 -26z m826 -216 l0
-215 -50 0 -50 0 0 215 0 215 50 0 50 0 0 -215z m399 181 c17 -16 37 -50 45
-75 16 -51 84 -276 92 -303 5 -16 -2 -18 -48 -18 l-53 0 -23 78 c-13 42 -35
114 -49 160 l-26 82 -88 0 -89 0 0 -160 0 -160 -50 0 -50 0 0 208 c0 115 3
212 8 216 4 4 73 6 154 4 146 -3 147 -3 177 -32z m518 20 c-3 -8 -11 -33 -17
-55 l-11 -41 -74 0 -75 0 0 -160 0 -160 -50 0 -50 0 0 160 0 160 -70 0 c-77 0
-82 4 -95 73 l-7 37 227 0 c193 0 226 -2 222 -14z m428 -18 c-18 -83 -8 -78
-165 -78 l-140 0 0 -30 0 -30 130 0 130 0 0 -50 0 -50 -131 0 -130 0 3 -27 3
-28 139 -5 139 -5 13 -35 c22 -63 29 -60 -157 -60 l-171 0 -34 34 -34 34 0
145 c0 141 1 146 25 176 14 16 36 32 48 34 12 2 93 5 180 6 l159 1 -7 -32z
m415 14 c49 -24 60 -53 60 -157 0 -70 -4 -97 -18 -120 -17 -27 -17 -35 -5 -74
7 -24 13 -48 13 -53 0 -4 -22 -8 -49 -8 -51 0 -52 0 -75 73 -5 14 -18 17 -96
17 l-90 0 0 -45 0 -45 -50 0 -50 0 0 208 c0 115 3 212 7 215 3 4 76 7 162 7
129 0 162 -3 191 -18z m-2399 -101 c38 -38 69 -76 69 -84 0 -8 -22 -29 -49
-46 l-50 -30 -65 64 -66 64 32 51 c17 27 38 50 46 50 8 0 45 -31 83 -69z
m-206 -41 c49 -24 145 -110 145 -128 0 -11 -130 -92 -147 -92 -5 0 -18 9 -29
21 -31 34 -69 49 -127 49 -175 0 -233 -235 -78 -317 72 -38 149 -26 208 33
l27 27 40 -22 c23 -11 59 -32 80 -45 l39 -24 -53 -56 c-30 -32 -76 -67 -109
-83 -49 -24 -68 -27 -151 -27 -85 0 -101 3 -153 29 -139 70 -224 231 -197 374
22 118 86 203 193 256 70 35 75 36 167 33 77 -2 104 -8 145 -28z m321 -125 c9
-25 15 -47 13 -48 -9 -6 -121 -38 -123 -35 -8 11 -28 69 -25 72 11 11 96 56
106 56 6 0 19 -20 29 -45z m-906 -89 c40 -9 55 -17 54 -29 -3 -72 2 -67 -69
-67 l-65 0 0 33 c0 38 10 77 19 77 3 -1 31 -7 61 -14z m934 -2 c3 -9 6 -33 6
-55 l0 -39 -65 0 c-71 0 -66 -5 -69 67 -1 12 13 20 49 29 69 16 72 16 79 -2z
m-875 -171 c28 -141 152 -269 289 -298 l32 -7 0 -64 0 -64 -30 0 c-46 0 -155
45 -220 91 -114 80 -210 247 -210 366 l0 33 64 0 63 0 12 -57z m880 20 c-1
-69 -5 -72 -77 -55 -56 14 -63 18 -58 36 3 12 6 29 6 39 0 14 10 17 65 17 l65
0 -1 -37z m846 -50 c-8 -27 -15 -49 -15 -50 0 -2 -75 -4 -167 -5 l-168 -3 0
-105 0 -105 158 -3 c183 -3 155 -24 212 161 49 159 44 157 268 157 l167 0 0
-210 0 -210 -50 0 -50 0 0 40 0 40 -143 0 -144 0 -12 -40 -12 -40 -210 0
c-292 0 -289 -2 -289 211 0 136 10 176 47 198 11 6 101 11 220 11 l202 0 -14
-47z m916 37 c35 -19 49 -64 49 -157 0 -70 -4 -95 -20 -120 -18 -30 -18 -35
-5 -74 8 -23 15 -46 15 -51 0 -5 -23 -8 -52 -6 -49 3 -52 5 -63 38 l-12 35
-106 3 -107 3 0 -41 0 -40 -50 0 -50 0 0 210 0 210 191 0 c111 0 198 -4 210
-10z m535 -15 c-3 -13 -11 -36 -16 -50 l-10 -25 -150 0 -150 0 0 -24 c0 -23 4
-24 118 -35 152 -16 159 -17 188 -46 21 -21 24 -33 24 -94 0 -65 -2 -71 -31
-95 -30 -26 -31 -26 -215 -26 l-184 0 -10 25 c-5 14 -13 37 -16 50 l-6 25 181
0 181 0 0 23 c0 23 -4 24 -141 39 -125 13 -143 17 -165 39 -46 46 -44 151 3
195 25 24 29 24 216 24 l189 0 -6 -25z"/>
<path d="M3170 965 l0 -66 108 3 107 3 3 63 3 62 -111 0 -110 0 0 -65z"/>
<path d="M2165 498 c-25 -72 -35 -105 -35 -116 0 -10 28 -12 123 -10 l122 3 3
68 3 67 -106 0 c-75 0 -107 -4 -110 -12z"/>
<path d="M2640 440 l0 -70 114 0 c133 0 139 3 134 82 l-3 53 -122 3 -123 3 0
-71z"/>
<path d="M3750 660 l0 -660 25 0 25 0 0 660 0 660 -25 0 -25 0 0 -660z"/>
</g>
</svg>
