<?xml version="1.0" standalone="no"?>
<!DOCTYPE svg PUBLIC "-//W3C//DTD SVG 20010904//EN"
 "http://www.w3.org/TR/2001/REC-SVG-20010904/DTD/svg10.dtd">
<svg version="1.0" xmlns="http://www.w3.org/2000/svg"
 width="228.000000pt" height="46.000000pt" viewBox="0 0 228.000000 46.000000"
 preserveAspectRatio="xMidYMid meet">

<g transform="translate(0.000000,46.000000) scale(0.100000,-0.100000)"
fill="#000000" stroke="none">
<path d="M183 380 c-60 -27 -54 -40 18 -40 37 0 58 -4 54 -10 -3 -5 -37 -10
-76 -10 -73 0 -95 -16 -31 -23 l37 -4 -42 -1 c-33 -2 -43 -7 -48 -23 -9 -28 1
-35 23 -16 10 10 28 17 39 17 11 0 26 7 33 15 7 8 22 15 35 15 12 0 30 8 39
19 9 10 30 21 47 25 40 8 36 21 -11 40 -51 20 -65 20 -117 -4z"/>
<path d="M375 340 c-10 -11 -28 -20 -40 -20 -13 0 -28 -7 -35 -15 -7 -8 -22
-15 -35 -15 -12 0 -30 -9 -40 -20 -10 -11 -25 -20 -34 -20 -9 0 -25 -7 -35
-15 -11 -8 -27 -15 -36 -15 -9 0 -29 -13 -45 -30 -16 -16 -24 -30 -18 -30 5 0
18 9 28 20 10 11 28 20 40 20 13 0 28 7 35 15 7 8 19 15 27 15 8 0 26 9 40 20
14 11 34 20 43 20 10 0 23 7 30 15 7 8 21 15 31 15 20 0 92 59 73 60 -6 0 -19
-9 -29 -20z"/>
<path d="M547 343 c-4 -3 -7 -48 -7 -100 0 -93 0 -93 25 -93 l25 0 0 100 c0
90 -2 100 -18 100 -10 0 -22 -3 -25 -7z"/>
<path d="M610 250 c0 -93 1 -100 20 -100 16 0 19 8 22 62 l3 62 38 -62 c30
-49 43 -62 63 -62 24 0 24 1 24 101 0 98 0 100 -22 97 -20 -3 -24 -10 -28 -60
l-5 -58 -39 60 c-24 39 -45 60 -57 60 -17 0 -19 -9 -19 -100z"/>
<path d="M790 330 c0 -16 7 -20 30 -20 l30 0 0 -80 c0 -79 0 -80 25 -80 25 0
25 1 25 80 l0 80 30 0 c23 0 30 4 30 20 0 18 -7 20 -85 20 -78 0 -85 -2 -85
-20z"/>
<path d="M977 343 c-4 -3 -7 -48 -7 -100 l0 -93 80 0 c64 0 80 3 80 15 0 12
-13 15 -55 15 -54 0 -55 0 -55 30 0 29 1 30 50 30 38 0 50 4 50 15 0 11 -12
15 -50 15 -43 0 -50 3 -50 20 0 17 7 20 50 20 43 0 50 3 50 20 0 18 -7 20 -68
20 -38 0 -72 -3 -75 -7z"/>
<path d="M1140 251 l0 -101 25 0 c23 0 25 4 25 41 0 33 3 40 18 37 9 -2 26
-20 37 -41 16 -29 26 -37 48 -37 27 0 27 1 13 28 -8 16 -21 34 -29 41 -13 10
-12 15 9 36 29 29 29 36 6 65 -14 17 -32 23 -85 27 l-67 6 0 -102z m108 37
c-2 -17 -11 -24 -30 -26 -24 -3 -28 0 -28 22 0 22 4 26 31 26 26 0 30 -3 27
-22z"/>
<path d="M1370 330 c0 -16 6 -20 30 -20 l30 0 0 -80 c0 -73 2 -80 20 -80 18 0
20 7 20 80 l0 80 36 0 c28 0 35 3 32 18 -3 14 -16 17 -86 20 -77 3 -82 2 -82
-18z"/>
<path d="M1550 250 l0 -100 75 0 c60 0 75 3 75 15 0 12 -13 15 -56 15 -54 0
-55 0 -52 28 3 25 7 27 51 30 33 2 47 7 47 18 0 10 -13 14 -50 14 -43 0 -50 3
-50 20 0 18 7 20 55 20 48 0 55 2 55 20 0 18 -7 20 -75 20 l-75 0 0 -100z"/>
<path d="M1774 313 c-9 -21 -27 -66 -40 -100 l-24 -63 26 0 c17 0 28 7 31 20
8 29 73 29 80 0 4 -14 14 -20 33 -20 l28 0 -38 98 c-30 77 -42 98 -59 100 -17
3 -25 -5 -37 -35z m51 -65 c6 -24 4 -28 -14 -28 -22 0 -25 10 -15 48 8 27 20
19 29 -20z"/>
<path d="M1920 250 c0 -93 1 -100 20 -100 18 0 20 7 21 68 l1 67 17 -65 c14
-52 21 -66 38 -68 18 -3 24 4 33 40 24 93 28 97 29 26 1 -61 3 -68 21 -68 19
0 20 7 20 101 l0 100 -32 -3 c-29 -3 -33 -7 -47 -60 -16 -55 -31 -84 -31 -59
0 7 -7 37 -16 67 -14 49 -18 54 -45 54 l-29 0 0 -100z"/>
<path d="M2164 336 c-15 -12 -17 -18 -8 -33 15 -24 58 -24 62 0 4 18 -14 47
-27 47 -4 0 -16 -6 -27 -14z m3 -28 c-3 -8 -6 -5 -6 6 -1 11 2 17 5 13 3 -3 4
-12 1 -19z m40 0 c-3 -8 -6 -5 -6 6 -1 11 2 17 5 13 3 -3 4 -12 1 -19z"/>
<path d="M410 305 c-7 -8 -22 -15 -35 -15 -12 0 -30 -9 -40 -20 -10 -11 -28
-20 -40 -20 -13 0 -25 -7 -29 -15 -3 -8 -16 -15 -29 -15 -13 0 -32 -9 -42 -20
-10 -11 -28 -20 -40 -20 -12 0 -32 -11 -45 -25 -13 -14 -19 -25 -13 -25 6 0
16 7 23 15 7 8 22 15 35 15 12 0 30 9 40 20 10 11 28 20 40 20 13 0 28 7 35
15 7 8 20 15 30 15 9 0 25 9 35 20 10 11 28 20 40 20 12 0 32 11 45 25 13 14
19 25 13 25 -6 0 -16 -7 -23 -15z"/>
<path d="M371 247 c-7 -10 -22 -17 -32 -17 -11 0 -28 -9 -39 -20 -11 -11 -28
-20 -38 -20 -11 0 -27 -9 -36 -19 -10 -11 -29 -21 -42 -23 -32 -4 -33 -20 -3
-36 37 -20 125 -10 152 16 l21 22 -62 0 c-40 0 -61 4 -57 10 3 6 37 10 76 10
73 0 95 16 32 23 l-38 4 38 1 c38 2 52 16 45 48 -3 16 -4 16 -17 1z"/>
<path d="M1320 220 c0 -17 7 -20 40 -20 33 0 40 3 40 20 0 17 -7 20 -40 20
-33 0 -40 -3 -40 -20z"/>
<path d="M558 113 c7 -3 16 -2 19 1 4 3 -2 6 -13 5 -11 0 -14 -3 -6 -6z"/>
<path d="M667 103 c-10 -9 -9 -33 1 -33 4 0 8 9 9 20 2 21 0 24 -10 13z"/>
<path d="M982 80 c0 -19 2 -27 5 -17 2 9 2 25 0 35 -3 9 -5 1 -5 -18z"/>
<path d="M1091 88 c-1 -16 -6 -28 -12 -28 -6 0 -9 8 -7 18 4 14 -2 17 -32 17
-31 0 -36 -2 -32 -20 3 -19 11 -21 78 -21 41 0 74 4 74 8 0 14 -33 39 -46 34
-7 -3 -15 0 -18 7 -2 7 -5 0 -5 -15z m-41 -13 c0 -8 -4 -15 -10 -15 -5 0 -10
7 -10 15 0 8 5 15 10 15 6 0 10 -7 10 -15z m80 0 c0 -8 -4 -15 -10 -15 -5 0
-10 7 -10 15 0 8 5 15 10 15 6 0 10 -7 10 -15z"/>
<path d="M544 75 c1 -12 9 -21 21 -22 14 -1 15 0 3 3 -9 3 -19 13 -21 22 -3
12 -4 11 -3 -3z"/>
<path d="M595 90 c3 -5 8 -10 11 -10 2 0 4 5 4 10 0 6 -5 10 -11 10 -5 0 -7
-4 -4 -10z"/>
<path d="M627 94 c-14 -14 -7 -44 11 -44 13 0 14 2 3 9 -11 7 -11 9 0 14 10 3
11 8 3 16 -6 6 -13 8 -17 5z"/>
<path d="M684 76 l-21 -25 31 1 c17 1 25 3 19 5 -7 3 -13 11 -13 18 0 7 6 16
13 18 6 3 8 6 2 6 -5 0 -20 -10 -31 -23z"/>
<path d="M774 89 c-3 -6 -1 -15 6 -19 10 -6 9 -9 -1 -13 -10 -4 -9 -6 4 -6 9
-1 17 6 17 14 0 8 -6 15 -12 15 -9 0 -8 4 2 10 9 6 10 10 3 10 -6 0 -15 -5
-19 -11z"/>
<path d="M820 93 c14 -7 13 -30 -2 -36 -8 -3 -5 -6 5 -6 13 -1 18 5 15 21 -2
12 -9 23 -16 24 -7 1 -8 0 -2 -3z"/>
<path d="M856 93 c7 -5 14 -17 17 -28 4 -17 5 -16 7 5 l2 25 9 -25 8 -25 -2
24 c-1 17 -9 25 -27 28 -14 1 -20 0 -14 -4z"/>
<path d="M918 93 c6 -3 12 -11 12 -18 0 -7 -6 -15 -12 -18 -7 -2 3 -4 22 -4
19 0 29 2 23 5 -7 2 -13 10 -13 17 0 7 6 15 13 18 6 2 -4 4 -23 4 -19 0 -29
-2 -22 -4z"/>
<path d="M1207 94 c-14 -14 -7 -44 11 -44 13 0 14 2 3 9 -11 7 -11 9 0 14 10
3 11 8 3 16 -6 6 -13 8 -17 5z"/>
<path d="M1312 84 c-7 -8 -12 -20 -9 -27 2 -7 9 -2 16 11 15 28 11 36 -7 16z"/>
<path d="M1428 80 c-16 -25 -25 -25 -31 -2 -3 10 -5 6 -6 -11 -1 -24 1 -26 18
-17 11 5 26 8 33 7 7 -2 10 -2 6 0 -12 7 -9 31 5 36 9 4 9 6 0 6 -7 1 -18 -8
-25 -19z"/>
<path d="M1474 89 c-3 -6 -1 -15 6 -19 10 -6 9 -9 -1 -13 -10 -4 -9 -6 4 -6 9
-1 17 6 17 14 0 8 -6 15 -12 15 -9 0 -8 4 2 10 9 6 10 10 3 10 -6 0 -15 -5
-19 -11z"/>
<path d="M1520 93 c14 -7 13 -30 -2 -36 -8 -3 -5 -6 5 -6 13 -1 18 5 15 21 -2
12 -9 23 -16 24 -7 1 -8 0 -2 -3z"/>
<path d="M1555 90 c3 -5 8 -10 11 -10 2 0 4 5 4 10 0 6 -5 10 -11 10 -5 0 -7
-4 -4 -10z"/>
<path d="M1589 92 c11 -8 11 -10 0 -15 -10 -4 -8 -6 4 -6 21 -1 18 21 -4 27
-12 3 -12 2 0 -6z"/>
<path d="M1626 93 c7 -4 14 -17 17 -28 5 -16 5 -15 4 4 -1 14 -9 26 -17 28
-10 3 -11 2 -4 -4z"/>
<path d="M1674 85 c-7 -17 3 -35 19 -35 7 0 6 4 -3 10 -13 9 -13 10 0 10 12 0
13 2 1 9 -11 7 -11 9 0 14 11 4 11 6 1 6 -7 1 -15 -6 -18 -14z"/>
<path d="M1753 87 c4 -10 7 -23 7 -28 0 -5 5 -9 10 -9 15 0 12 20 -7 38 -16
16 -16 16 -10 -1z"/>
<path d="M1805 90 c3 -5 1 -10 -4 -10 -6 0 -11 -7 -11 -15 0 -8 7 -15 15 -15
9 0 15 9 15 25 0 14 -5 25 -11 25 -5 0 -7 -4 -4 -10z"/>
<path d="M1831 71 c1 -24 1 -24 7 -4 6 19 9 20 25 8 13 -10 15 -14 5 -18 -8
-4 -7 -6 5 -6 9 -1 17 6 17 14 0 8 -6 15 -12 15 -10 0 -10 2 0 8 8 6 2 9 -18
9 -26 0 -30 -4 -29 -26z"/>
<path d="M1905 90 c3 -5 8 -10 11 -10 2 0 4 5 4 10 0 6 -5 10 -11 10 -5 0 -7
-4 -4 -10z"/>
<path d="M1930 77 c0 -20 5 -24 31 -25 25 -1 30 3 27 20 -2 12 -9 23 -16 24
-7 1 -8 0 -2 -3 13 -6 13 -33 -1 -33 -5 0 -7 6 -3 13 5 7 0 6 -11 -3 -17 -14
-18 -13 -13 8 4 12 2 22 -3 22 -5 0 -9 -11 -9 -23z"/>
<path d="M2000 75 c0 -14 3 -25 8 -25 4 0 7 11 7 25 0 14 -3 25 -7 25 -5 0 -8
-11 -8 -25z"/>
<path d="M2036 93 c-12 -12 -6 -43 9 -43 8 0 15 9 15 19 0 21 -13 34 -24 24z
m11 -25 c-3 -8 -6 -5 -6 6 -1 11 2 17 5 13 3 -3 4 -12 1 -19z"/>
<path d="M2082 84 c-7 -8 -12 -20 -9 -27 2 -7 9 -2 16 11 15 28 11 36 -7 16z"/>
<path d="M732 70 c0 -14 2 -19 5 -12 2 6 2 18 0 25 -3 6 -5 1 -5 -13z"/>
<path d="M1176 74 c-4 -9 -4 -19 -1 -22 2 -3 7 3 11 12 4 9 4 19 1 22 -2 3 -7
-3 -11 -12z"/>
<path d="M1262 70 c0 -14 2 -19 5 -12 2 6 2 18 0 25 -3 6 -5 1 -5 -13z"/>
<path d="M1336 75 c-9 -26 -7 -32 5 -12 6 10 9 21 6 23 -2 3 -7 -2 -11 -11z"/>
<path d="M1730 85 c0 -5 5 -17 10 -25 5 -8 10 -10 10 -5 0 6 -5 17 -10 25 -5
8 -10 11 -10 5z"/>
<path d="M2106 75 c-9 -26 -7 -32 5 -12 6 10 9 21 6 23 -2 3 -7 -2 -11 -11z"/>
<path d="M1367 73 c-4 -3 -7 -11 -7 -17 0 -6 5 -5 12 2 6 6 9 14 7 17 -3 3 -9
2 -12 -2z"/>
<path d="M590 60 c0 -5 5 -10 11 -10 5 0 7 5 4 10 -3 6 -8 10 -11 10 -2 0 -4
-4 -4 -10z"/>
<path d="M1550 60 c0 -5 5 -10 11 -10 5 0 7 5 4 10 -3 6 -8 10 -11 10 -2 0 -4
-4 -4 -10z"/>
<path d="M1900 60 c0 -5 5 -10 11 -10 5 0 7 5 4 10 -3 6 -8 10 -11 10 -2 0 -4
-4 -4 -10z"/>
</g>
</svg>
